<?xml version="1.0" encoding="UTF-8" standalone="no"?>
<svg
   class="img-fluid"
   id="outputsvg"
   width="265.61206"
   height="247.53938"
   viewBox="0 0 2656.1206 2475.3938"
   version="1.1"
   sodipodi:docname="YellowCircle.8d5d86f7.svg"
   inkscape:version="1.1 (c68e22c387, 2021-05-23)"
   xmlns:inkscape="http://www.inkscape.org/namespaces/inkscape"
   xmlns:sodipodi="http://sodipodi.sourceforge.net/DTD/sodipodi-0.dtd"
   xmlns="http://www.w3.org/2000/svg"
   xmlns:svg="http://www.w3.org/2000/svg">
  <defs
     id="defs42">
    <clipPath
       clipPathUnits="userSpaceOnUse"
       id="clipPath254">
      <rect
         style="fill:#0000ff;fill-rule:evenodd;stroke-width:9.90924"
         id="rect256"
         width="2736.0632"
         height="2560.1006"
         x="47.557312"
         y="-3.157807e-06" />
    </clipPath>
    <clipPath
       clipPathUnits="userSpaceOnUse"
       id="clipPath258">
      <rect
         style="fill:#0000ff;fill-rule:evenodd;stroke-width:9.90924"
         id="rect260"
         width="2736.0632"
         height="2560.1006"
         x="47.557312"
         y="-3.157807e-06" />
    </clipPath>
    <clipPath
       clipPathUnits="userSpaceOnUse"
       id="clipPath262">
      <rect
         style="fill:#0000ff;fill-rule:evenodd;stroke-width:9.90924"
         id="rect264"
         width="2736.0632"
         height="2560.1006"
         x="47.557312"
         y="-3.157807e-06" />
    </clipPath>
    <clipPath
       clipPathUnits="userSpaceOnUse"
       id="clipPath266">
      <rect
         style="fill:#0000ff;fill-rule:evenodd;stroke-width:9.90924"
         id="rect268"
         width="2736.0632"
         height="2560.1006"
         x="47.557312"
         y="-3.157807e-06" />
    </clipPath>
    <clipPath
       clipPathUnits="userSpaceOnUse"
       id="clipPath270">
      <rect
         style="fill:#0000ff;fill-rule:evenodd;stroke-width:9.90924"
         id="rect272"
         width="2736.0632"
         height="2560.1006"
         x="47.557312"
         y="-3.157807e-06" />
    </clipPath>
  </defs>
  <sodipodi:namedview
     id="namedview40"
     pagecolor="#ffffff"
     bordercolor="#666666"
     borderopacity="1.0"
     inkscape:pageshadow="2"
     inkscape:pageopacity="0.0"
     inkscape:pagecheckerboard="0"
     showgrid="false"
     inkscape:zoom="1.2353516"
     inkscape:cx="108.87589"
     inkscape:cy="108.87589"
     inkscape:window-width="1920"
     inkscape:window-height="1001"
     inkscape:window-x="-9"
     inkscape:window-y="-9"
     inkscape:window-maximized="1"
     inkscape:current-layer="outputsvg"
     fit-margin-top="0"
     fit-margin-left="0"
     fit-margin-right="0"
     fit-margin-bottom="0" />
  <g
     id="l4phDSkKbdtxZkxg5Yq49Mg"
     fill="#fafe22"
     clip-path="url(#clipPath270)"
     transform="translate(-127.5)">
    <g
       fill="#fafe22"
       id="g3">
      <path
         id="p4WHUIaAx"
         d="m 2090,2474 c -304,-25 -549,-89 -775,-201 -129,-64 -260,-140 -276,-159 -6,-8 -16,-14 -21,-14 -6,0 -27,-13 -47,-30 -20,-16 -62,-51 -95,-77 C 742,1883 674,1813 553,1657 447,1521 311,1274 250,1109 205,988 164,821 144,684 122,531 122,264 144,116 153,56 160,5 160,3 c 0,-2 61,-3 135,-3 157,0 144,-15 118,138 -31,183 -21,422 26,652 10,49 57,203 71,235 5,11 12,31 16,45 20,75 171,340 233,409 11,13 21,27 21,31 0,10 301,310 311,310 4,0 23,14 41,30 18,17 38,30 45,30 7,0 13,4 13,8 0,21 286,171 385,202 22,7 54,19 71,26 41,18 216,59 319,75 44,7 148,13 230,13 83,0 186,-6 230,-13 163,-26 386,-86 465,-126 14,-6 57,-27 95,-44 85,-39 225,-122 225,-133 0,-4 6,-8 13,-8 7,0 26,-11 42,-25 86,-71 92,-74 103,-63 12,12 83,-48 171,-144 24,-27 47,-48 52,-48 13,0 199,121 199,129 0,14 -157,175 -222,229 -179,147 -264,203 -448,296 -277,141 -540,208 -860,219 -69,3 -145,3 -170,1 z"
         fill="#fafe22"
         inkscape:original-d="m 2090,2474 c -304,-25 -549,-89 -775,-201 -129,-64 -260,-140 -276,-159 -6,-8 -16,-14 -21,-14 -6,0 -27,-13 -47,-30 -20,-16 -62,-51 -95,-77 C 742,1883 674,1813 553,1657 447,1521 311,1274 250,1109 205,988 164,821 144,684 122,531 122,264 144,116 153,56 160,5 160,3 c 0,-2 61,-3 135,-3 157,0 144,-15 118,138 -31,183 -21,422 26,652 10,49 57,203 71,235 5,11 12,31 16,45 20,75 171,340 233,409 11,13 21,27 21,31 0,10 301,310 311,310 4,0 23,14 41,30 18,17 38,30 45,30 7,0 13,4 13,8 0,21 286,171 385,202 22,7 54,19 71,26 41,18 216,59 319,75 44,7 148,13 230,13 83,0 186,-6 230,-13 163,-26 386,-86 465,-126 14,-6 57,-27 95,-44 85,-39 225,-122 225,-133 0,-4 6,-8 13,-8 7,0 26,-11 42,-25 86,-71 92,-74 103,-63 12,12 83,-48 171,-144 24,-27 47,-48 52,-48 13,0 199,121 199,129 0,14 -157,175 -222,229 -179,147 -264,203 -448,296 -277,141 -540,208 -860,219 -69,3 -145,3 -170,1 z" />
    </g>
  </g>
  <g
     id="l5yHCSvbJGG154wD9pj30B2"
     fill="#fff98d"
     clip-path="url(#clipPath266)"
     transform="translate(-127.5)">
    <g
       fill="#fff98d"
       id="g8">
      <path
         id="pI433iYck"
         d="M 2014,1980 C 1394,1909 880,1496 692,920 629,727 616,639 617,395 618,222 622,157 637,90 L 655,5 764,2 c 87,-2 107,0 103,11 -45,118 -58,476 -23,637 38,179 114,359 216,515 63,96 236,271 340,344 87,61 262,149 370,184 152,50 232,62 430,62 232,0 369,-27 557,-111 69,-30 70,-30 97,4 60,77 89,102 102,91 11,-9 14,-5 14,24 0,35 -2,37 -72,71 -153,72 -225,96 -378,126 -118,24 -385,34 -506,20 z"
         fill="#fff98d"
         inkscape:original-d="M 2014,1980 C 1394,1909 880,1496 692,920 629,727 616,639 617,395 618,222 622,157 637,90 L 655,5 764,2 c 87,-2 107,0 103,11 -45,118 -58,476 -23,637 38,179 114,359 216,515 63,96 236,271 340,344 87,61 262,149 370,184 152,50 232,62 430,62 232,0 369,-27 557,-111 69,-30 70,-30 97,4 60,77 89,102 102,91 11,-9 14,-5 14,24 0,35 -2,37 -72,71 -153,72 -225,96 -378,126 -118,24 -385,34 -506,20 z" />
      <path
         id="peqQxmrA3"
         d="m 450,315 c 0,-33 2,-35 35,-35 33,0 35,2 35,35 0,33 -2,35 -35,35 -33,0 -35,-2 -35,-35 z"
         fill="#fff98d"
         inkscape:original-d="m 450,315 c 0,-33 2,-35 35,-35 33,0 35,2 35,35 0,33 -2,35 -35,35 -33,0 -35,-2 -35,-35 z" />
    </g>
  </g>
  <g
     id="lfxZOIYm0VPsx6U08zFfaY"
     fill="#ffad24"
     clip-path="url(#clipPath262)"
     transform="translate(-127.5)">
    <g
       fill="#ffad24"
       id="g16">
      <path
         id="pfshvKcnF"
         d="m 2050,2234 c -179,-21 -367,-59 -434,-88 -17,-7 -49,-19 -71,-26 -99,-31 -385,-181 -385,-202 0,-4 -6,-8 -13,-8 -7,0 -27,-13 -45,-30 -18,-16 -37,-30 -41,-30 -10,0 -311,-300 -311,-310 0,-4 -10,-18 -21,-31 -62,-69 -213,-334 -233,-409 -4,-14 -11,-34 -16,-45 -12,-28 -23,-58 -25,-70 -2,-5 -12,-41 -23,-80 C 355,635 341,348 391,63 L 402,0 h 78 c 53,0 80,4 83,13 4,10 6,10 6,0 2,-21 69,-16 74,5 4,16 5,16 6,0 1,-11 9,-18 22,-18 24,0 24,-4 -12,167 -12,61 -38,74 -40,21 l -1,-33 -8,30 c -4,17 -8,54 -9,83 l -1,52 h -36 -37 l 6,-92 c 4,-78 4,-86 -5,-48 -13,59 -14,382 0,440 8,38 9,29 5,-53 l -6,-97 h 37 36 l 1,58 c 1,31 5,71 9,87 l 8,30 1,-32 c 1,-42 27,-44 35,-3 5,25 17,83 21,100 1,3 5,25 9,50 5,25 13,51 18,58 6,6 8,12 5,12 -5,0 12,58 30,100 13,31 11,40 -9,40 -15,0 -18,4 -12,23 3,12 10,29 15,37 7,12 8,10 9,-7 0,-44 20,-22 75,87 31,61 61,110 66,110 6,0 8,4 5,8 -3,5 6,20 20,35 13,15 23,29 22,31 -2,3 11,21 29,40 17,20 29,36 26,36 -3,0 7,12 22,27 15,15 36,40 47,55 l 19,28 h -22 c -21,0 -19,5 21,46 40,40 45,43 48,24 3,-20 4,-20 30,-1 15,11 45,36 67,56 175,159 550,321 779,337 28,2 36,7 36,22 0,17 -6,18 -60,13 -33,-4 -73,-10 -88,-13 -15,-4 -24,-4 -21,0 9,10 167,36 217,36 42,0 42,0 42,36 v 37 l -87,-6 c -67,-4 -79,-3 -53,5 48,13 384,13 440,0 38,-9 31,-10 -47,-5 l -93,6 v -37 c 0,-36 0,-36 43,-37 23,0 60,-4 82,-8 39,-8 39,-9 8,-10 -21,-1 -33,-6 -33,-15 0,-13 25,-21 130,-41 71,-13 90,-18 150,-37 123,-39 271,-109 288,-137 18,-30 32,-26 32,9 0,25 4,30 25,30 14,0 25,-6 25,-12 0,-7 23,-28 51,-46 38,-25 54,-31 64,-22 9,8 15,8 20,0 11,-18 24,-11 27,15 l 3,25 39,-27 c 38,-27 38,-27 55,-8 9,11 35,37 58,57 l 42,37 -32,26 c -18,14 -45,37 -62,50 -16,14 -35,25 -41,25 -7,0 -14,4 -16,9 -7,20 -298,182 -298,166 0,-3 -10,1 -22,9 -37,23 -231,85 -313,100 -156,29 -234,37 -365,40 -85,3 -171,2 -190,0 z m 475,-264 c 14,-7 8,-8 -20,-3 -22,3 -42,7 -44,9 -9,8 45,2 64,-6 z m -895,-85 c 0,-10 -9,-15 -27,-14 -17,1 -21,3 -10,6 9,2 17,9 17,14 0,5 5,9 10,9 6,0 10,-7 10,-15 z m -220,-105 c 0,-5 -7,-10 -15,-10 -8,0 -15,5 -15,10 0,6 7,10 15,10 8,0 15,-4 15,-10 z M 830,1210 c 0,-11 -4,-20 -10,-20 -5,0 -10,9 -10,20 0,11 5,20 10,20 6,0 10,-9 10,-20 z M 631,694 c -5,-21 -9,-30 -10,-19 -1,24 10,67 15,62 3,-2 0,-22 -5,-43 z m 2,-599 c 5,-28 4,-34 -3,-20 -8,19 -14,73 -6,64 2,-2 6,-22 9,-44 z"
         fill="#ffad24"
         inkscape:original-d="m 2050,2234 c -179,-21 -367,-59 -434,-88 -17,-7 -49,-19 -71,-26 -99,-31 -385,-181 -385,-202 0,-4 -6,-8 -13,-8 -7,0 -27,-13 -45,-30 -18,-16 -37,-30 -41,-30 -10,0 -311,-300 -311,-310 0,-4 -10,-18 -21,-31 -62,-69 -213,-334 -233,-409 -4,-14 -11,-34 -16,-45 -12,-28 -23,-58 -25,-70 -2,-5 -12,-41 -23,-80 C 355,635 341,348 391,63 L 402,0 h 78 c 53,0 80,4 83,13 4,10 6,10 6,0 2,-21 69,-16 74,5 4,16 5,16 6,0 1,-11 9,-18 22,-18 24,0 24,-4 -12,167 -12,61 -38,74 -40,21 l -1,-33 -8,30 c -4,17 -8,54 -9,83 l -1,52 h -36 -37 l 6,-92 c 4,-78 4,-86 -5,-48 -13,59 -14,382 0,440 8,38 9,29 5,-53 l -6,-97 h 37 36 l 1,58 c 1,31 5,71 9,87 l 8,30 1,-32 c 1,-42 27,-44 35,-3 5,25 17,83 21,100 1,3 5,25 9,50 5,25 13,51 18,58 6,6 8,12 5,12 -5,0 12,58 30,100 13,31 11,40 -9,40 -15,0 -18,4 -12,23 3,12 10,29 15,37 7,12 8,10 9,-7 0,-44 20,-22 75,87 31,61 61,110 66,110 6,0 8,4 5,8 -3,5 6,20 20,35 13,15 23,29 22,31 -2,3 11,21 29,40 17,20 29,36 26,36 -3,0 7,12 22,27 15,15 36,40 47,55 l 19,28 h -22 c -21,0 -19,5 21,46 40,40 45,43 48,24 3,-20 4,-20 30,-1 15,11 45,36 67,56 175,159 550,321 779,337 28,2 36,7 36,22 0,17 -6,18 -60,13 -33,-4 -73,-10 -88,-13 -15,-4 -24,-4 -21,0 9,10 167,36 217,36 42,0 42,0 42,36 v 37 l -87,-6 c -67,-4 -79,-3 -53,5 48,13 384,13 440,0 38,-9 31,-10 -47,-5 l -93,6 v -37 c 0,-36 0,-36 43,-37 23,0 60,-4 82,-8 39,-8 39,-9 8,-10 -21,-1 -33,-6 -33,-15 0,-13 25,-21 130,-41 71,-13 90,-18 150,-37 123,-39 271,-109 288,-137 18,-30 32,-26 32,9 0,25 4,30 25,30 14,0 25,-6 25,-12 0,-7 23,-28 51,-46 38,-25 54,-31 64,-22 9,8 15,8 20,0 11,-18 24,-11 27,15 l 3,25 39,-27 c 38,-27 38,-27 55,-8 9,11 35,37 58,57 l 42,37 -32,26 c -18,14 -45,37 -62,50 -16,14 -35,25 -41,25 -7,0 -14,4 -16,9 -7,20 -298,182 -298,166 0,-3 -10,1 -22,9 -37,23 -231,85 -313,100 -156,29 -234,37 -365,40 -85,3 -171,2 -190,0 z m 475,-264 c 14,-7 8,-8 -20,-3 -22,3 -42,7 -44,9 -9,8 45,2 64,-6 z m -895,-85 c 0,-10 -9,-15 -27,-14 -17,1 -21,3 -10,6 9,2 17,9 17,14 0,5 5,9 10,9 6,0 10,-7 10,-15 z m -220,-105 c 0,-5 -7,-10 -15,-10 -8,0 -15,5 -15,10 0,6 7,10 15,10 8,0 15,-4 15,-10 z M 830,1210 c 0,-11 -4,-20 -10,-20 -5,0 -10,9 -10,20 0,11 5,20 10,20 6,0 10,-9 10,-20 z M 631,694 c -5,-21 -9,-30 -10,-19 -1,24 10,67 15,62 3,-2 0,-22 -5,-43 z m 2,-599 c 5,-28 4,-34 -3,-20 -8,19 -14,73 -6,64 2,-2 6,-22 9,-44 z" />
      <path
         id="plSk9JUus"
         d="m 2050,1970 c 0,-21 23,-26 68,-14 41,11 26,34 -23,34 -38,0 -45,-3 -45,-20 z"
         fill="#ffad24"
         inkscape:original-d="m 2050,1970 c 0,-21 23,-26 68,-14 41,11 26,34 -23,34 -38,0 -45,-3 -45,-20 z" />
      <path
         id="p5swVNI5e"
         d="m 2270,1976 c 0,-14 29,-26 68,-26 15,0 22,6 22,20 0,17 -7,20 -45,20 -32,0 -45,-4 -45,-14 z"
         fill="#ffad24"
         inkscape:original-d="m 2270,1976 c 0,-14 29,-26 68,-26 15,0 22,6 22,20 0,17 -7,20 -45,20 -32,0 -45,-4 -45,-14 z" />
      <path
         id="paRkq9r4m"
         d="m 610,515 c 0,-49 23,-64 34,-22 12,44 7,67 -14,67 -17,0 -20,-7 -20,-45 z"
         fill="#ffad24"
         inkscape:original-d="m 610,515 c 0,-49 23,-64 34,-22 12,44 7,67 -14,67 -17,0 -20,-7 -20,-45 z" />
      <path
         id="pR4q01Bbd"
         d="m 610,285 c 0,-38 3,-45 20,-45 21,0 26,23 14,68 -11,41 -34,26 -34,-23 z"
         fill="#ffad24"
         inkscape:original-d="m 610,285 c 0,-38 3,-45 20,-45 21,0 26,23 14,68 -11,41 -34,26 -34,-23 z" />
    </g>
  </g>
  <g
     id="l4vwad9TPqXO26g6rYDoL1w"
     fill="#fefdfc"
     clip-path="url(#clipPath258)"
     transform="translate(-127.5)">
    <g
       fill="#fefdfc"
       id="g32">
      <path
         id="pqpOU8fAd"
         d="M 2060,2114 C 1730,2078 1497,1996 1240,1824 888,1589 633,1226 532,815 493,660 485,587 486,400 486,227 497,110 521,33 531,1 533,0 586,0 c 30,0 54,3 54,8 0,4 -9,50 -21,102 -29,138 -36,347 -15,486 17,118 61,289 94,364 l 20,45 -6,-47 c -3,-32 -1,-48 7,-48 6,0 11,7 11,15 0,8 5,15 10,15 6,0 9,3 9,8 -1,4 -1,9 1,12 12,31 8,50 -10,50 -11,0 -20,2 -20,6 0,9 75,155 110,214 47,80 131,192 139,184 3,-4 0,-9 -6,-11 -7,-3 -13,-19 -13,-36 1,-27 2,-29 11,-14 6,9 15,14 21,11 7,-4 8,-2 4,5 -4,6 0,14 8,17 9,3 14,10 11,14 -3,5 0,12 7,16 9,6 5,10 -12,15 -24,6 -20,11 70,100 81,81 95,91 98,72 4,-24 28,-21 49,6 10,13 7,17 -15,21 -25,5 -22,9 56,65 80,58 97,69 212,132 135,73 383,151 550,173 220,28 496,-6 715,-89 64,-24 67,-26 38,-29 -36,-4 -43,-16 -15,-27 37,-17 52,-15 52,5 0,11 2,20 4,20 2,0 30,-12 62,-27 l 59,-28 -33,-5 c -31,-5 -32,-6 -15,-20 28,-23 51,-23 55,0 3,18 10,16 83,-27 57,-34 81,-54 83,-70 3,-22 3,-22 24,-3 21,19 21,19 50,-5 36,-30 41,-31 78,-3 48,35 50,31 -100,132 -218,146 -416,225 -675,272 -78,14 -355,26 -425,18 z m -940,-477 c 0,-1 -37,-38 -82,-82 l -83,-80 80,83 c 74,76 85,87 85,79 z M 567,513 c -3,-10 -5,-2 -5,17 0,19 2,27 5,18 2,-10 2,-26 0,-35 z"
         fill="#fefdfc"
         inkscape:original-d="M 2060,2114 C 1730,2078 1497,1996 1240,1824 888,1589 633,1226 532,815 493,660 485,587 486,400 486,227 497,110 521,33 531,1 533,0 586,0 c 30,0 54,3 54,8 0,4 -9,50 -21,102 -29,138 -36,347 -15,486 17,118 61,289 94,364 l 20,45 -6,-47 c -3,-32 -1,-48 7,-48 6,0 11,7 11,15 0,8 5,15 10,15 6,0 9,3 9,8 -1,4 -1,9 1,12 12,31 8,50 -10,50 -11,0 -20,2 -20,6 0,9 75,155 110,214 47,80 131,192 139,184 3,-4 0,-9 -6,-11 -7,-3 -13,-19 -13,-36 1,-27 2,-29 11,-14 6,9 15,14 21,11 7,-4 8,-2 4,5 -4,6 0,14 8,17 9,3 14,10 11,14 -3,5 0,12 7,16 9,6 5,10 -12,15 -24,6 -20,11 70,100 81,81 95,91 98,72 4,-24 28,-21 49,6 10,13 7,17 -15,21 -25,5 -22,9 56,65 80,58 97,69 212,132 135,73 383,151 550,173 220,28 496,-6 715,-89 64,-24 67,-26 38,-29 -36,-4 -43,-16 -15,-27 37,-17 52,-15 52,5 0,11 2,20 4,20 2,0 30,-12 62,-27 l 59,-28 -33,-5 c -31,-5 -32,-6 -15,-20 28,-23 51,-23 55,0 3,18 10,16 83,-27 57,-34 81,-54 83,-70 3,-22 3,-22 24,-3 21,19 21,19 50,-5 36,-30 41,-31 78,-3 48,35 50,31 -100,132 -218,146 -416,225 -675,272 -78,14 -355,26 -425,18 z m -940,-477 c 0,-1 -37,-38 -82,-82 l -83,-80 80,83 c 74,76 85,87 85,79 z M 567,513 c -3,-10 -5,-2 -5,17 0,19 2,27 5,18 2,-10 2,-26 0,-35 z" />
      <path
         id="pyQSTsPvE"
         d="m 2110,1976 c 0,-16 25,-24 53,-18 32,8 19,32 -18,32 -24,0 -35,-5 -35,-14 z"
         fill="#fefdfc"
         inkscape:original-d="m 2110,1976 c 0,-16 25,-24 53,-18 32,8 19,32 -18,32 -24,0 -35,-5 -35,-14 z" />
      <path
         id="ppUdgY2LZ"
         d="m 1990,1966 c 0,-16 25,-24 53,-18 32,8 19,32 -18,32 -24,0 -35,-5 -35,-14 z"
         fill="#fefdfc"
         inkscape:original-d="m 1990,1966 c 0,-16 25,-24 53,-18 32,8 19,32 -18,32 -24,0 -35,-5 -35,-14 z" />
      <path
         id="p15gsXEc1H"
         d="m 2340,1966 c 0,-16 25,-24 53,-18 32,8 19,32 -18,32 -24,0 -35,-5 -35,-14 z"
         fill="#fefdfc"
         inkscape:original-d="m 2340,1966 c 0,-16 25,-24 53,-18 32,8 19,32 -18,32 -24,0 -35,-5 -35,-14 z" />
      <path
         id="paSxXn5XG"
         d="m 2470,1950 c 0,-14 31,-28 51,-23 34,9 22,33 -16,33 -19,0 -35,-4 -35,-10 z"
         fill="#fefdfc"
         inkscape:original-d="m 2470,1950 c 0,-14 31,-28 51,-23 34,9 22,33 -16,33 -19,0 -35,-4 -35,-10 z" />
      <path
         id="pQ8fttklt"
         d="m 890,1290 c 0,-23 -4,-30 -20,-30 -17,0 -20,-7 -20,-37 1,-36 1,-37 13,-15 7,12 17,19 22,15 4,-4 5,-3 2,3 -6,11 26,68 34,60 3,-3 5,4 6,14 1,14 -5,20 -18,20 -14,0 -19,-7 -19,-30 z"
         fill="#fefdfc"
         inkscape:original-d="m 890,1290 c 0,-23 -4,-30 -20,-30 -17,0 -20,-7 -20,-37 1,-36 1,-37 13,-15 7,12 17,19 22,15 4,-4 5,-3 2,3 -6,11 26,68 34,60 3,-3 5,4 6,14 1,14 -5,20 -18,20 -14,0 -19,-7 -19,-30 z" />
      <path
         id="pwPwSeKkN"
         d="m 670,825 c 0,-19 5,-35 10,-35 6,0 10,7 10,15 0,8 4,15 8,15 4,0 8,9 8,20 0,13 -7,20 -18,20 -14,0 -18,-8 -18,-35 z"
         fill="#fefdfc"
         inkscape:original-d="m 670,825 c 0,-19 5,-35 10,-35 6,0 10,7 10,15 0,8 4,15 8,15 4,0 8,9 8,20 0,13 -7,20 -18,20 -14,0 -18,-8 -18,-35 z" />
      <path
         id="p1nQOYjUT"
         d="m 640,705 c 0,-37 13,-46 28,-19 12,22 4,54 -14,54 -9,0 -14,-12 -14,-35 z"
         fill="#fefdfc"
         inkscape:original-d="m 640,705 c 0,-37 13,-46 28,-19 12,22 4,54 -14,54 -9,0 -14,-12 -14,-35 z" />
      <path
         id="pfS9m3Vmc"
         d="m 620,575 c 0,-37 24,-50 32,-17 6,27 -2,52 -18,52 -9,0 -14,-11 -14,-35 z"
         fill="#fefdfc"
         inkscape:original-d="m 620,575 c 0,-37 24,-50 32,-17 6,27 -2,52 -18,52 -9,0 -14,-11 -14,-35 z" />
      <path
         id="p7mGgB8qE"
         d="m 610,445 c 0,-37 24,-50 32,-17 6,27 -2,52 -18,52 -9,0 -14,-11 -14,-35 z"
         fill="#fefdfc"
         inkscape:original-d="m 610,445 c 0,-37 24,-50 32,-17 6,27 -2,52 -18,52 -9,0 -14,-11 -14,-35 z" />
      <path
         id="pbGCIVVYk"
         d="m 610,345 c 0,-37 24,-50 32,-17 6,27 -2,52 -18,52 -9,0 -14,-11 -14,-35 z"
         fill="#fefdfc"
         inkscape:original-d="m 610,345 c 0,-37 24,-50 32,-17 6,27 -2,52 -18,52 -9,0 -14,-11 -14,-35 z" />
      <path
         id="p1Cv1d2pmG"
         d="m 620,225 c 0,-37 24,-50 32,-17 6,27 -2,52 -18,52 -9,0 -14,-11 -14,-35 z"
         fill="#fefdfc"
         inkscape:original-d="m 620,225 c 0,-37 24,-50 32,-17 6,27 -2,52 -18,52 -9,0 -14,-11 -14,-35 z" />
      <path
         id="pWE84iINq"
         d="m 640,95 c 0,-23 5,-35 14,-35 18,0 26,32 14,54 -15,27 -28,18 -28,-19 z"
         fill="#fefdfc"
         inkscape:original-d="m 640,95 c 0,-23 5,-35 14,-35 18,0 26,32 14,54 -15,27 -28,18 -28,-19 z" />
    </g>
  </g>
  <g
     id="lWMeASjmfgmCcMbDnIpHzf"
     fill="#fd3e1b"
     clip-path="url(#clipPath254)"
     transform="translate(-127.5)">
    <g
       fill="#fd3e1b"
       id="g36">
      <path
         id="pCKxVJkst"
         d="m 2060,2034 c -235,-27 -387,-70 -580,-165 -176,-86 -278,-158 -418,-293 C 808,1331 652,1037 583,670 552,505 561,204 602,43 612,1 614,0 652,0 c 37,0 40,2 34,22 -31,110 -40,195 -40,378 0,197 3,229 46,400 44,175 146,386 263,541 78,104 235,256 341,331 193,136 414,227 654,269 100,18 413,18 505,0 113,-22 212,-50 304,-86 132,-51 190,-79 189,-90 -2,-20 15,-45 31,-45 9,0 23,-9 31,-20 8,-11 22,-20 32,-20 10,0 18,-4 18,-10 0,-20 33,-9 61,21 16,17 29,35 29,39 0,11 -114,83 -205,128 -163,82 -300,127 -475,158 -84,14 -343,26 -410,18 z"
         fill="#fd3e1b" />
    </g>
  </g>
</svg>
