<svg xmlns:xlink="http://www.w3.org/1999/xlink" class="img-fluid" id="outputsvg" xmlns="http://www.w3.org/2000/svg" style="transform: none; transform-origin: 50% 50%; cursor: move; transition: none 0s ease 0s;" width="512" height="256" viewBox="0 0 5120 2560"><g id="l4phDSkKbdtxZkxg5Yq49Mg" fill="#FAFE22" style="transform: none;"><g fill="#FAFE22"><path id="p4WHUIaAx" d="M2090 2474 c-304 -25 -549 -89 -775 -201 -129 -64 -260 -140 -276 -159 -6 -8 -16 -14 -21 -14 -6 0 -27 -13 -47 -30 -20 -16 -62 -51 -95 -77 -134 -110 -202 -180 -323 -336 -106 -136 -242 -383 -303 -548 -45 -121 -86 -288 -106 -425 -22 -153 -22 -420 0 -568 9 -60 16 -111 16 -113 0 -2 61 -3 135 -3 157 0 144 -15 118 138 -31 183 -21 422 26 652 10 49 57 203 71 235 5 11 12 31 16 45 20 75 171 340 233 409 11 13 21 27 21 31 0 10 301 310 311 310 4 0 23 14 41 30 18 17 38 30 45 30 7 0 13 4 13 8 0 21 286 171 385 202 22 7 54 19 71 26 41 18 216 59 319 75 44 7 148 13 230 13 83 0 186 -6 230 -13 163 -26 386 -86 465 -126 14 -6 57 -27 95 -44 85 -39 225 -122 225 -133 0 -4 6 -8 13 -8 7 0 26 -11 42 -25 86 -71 92 -74 103 -63 12 12 83 -48 171 -144 24 -27 47 -48 52 -48 13 0 199 121 199 129 0 14 -157 175 -222 229 -179 147 -264 203 -448 296 -277 141 -540 208 -860 219 -69 3 -145 3 -170 1z" fill="#FAFE22"></path></g></g><g id="l5yHCSvbJGG154wD9pj30B2" fill="#FFF98D" style="transform: none;"><g fill="#FFF98D"><path id="pI433iYck" d="M2014 1980 c-620 -71 -1134 -484 -1322 -1060 -63 -193 -76 -281 -75 -525 1 -173 5 -238 20 -305 l18 -85 109 -3 c87 -2 107 0 103 11 -45 118 -58 476 -23 637 38 179 114 359 216 515 63 96 236 271 340 344 87 61 262 149 370 184 152 50 232 62 430 62 232 0 369 -27 557 -111 69 -30 70 -30 97 4 60 77 89 102 102 91 11 -9 14 -5 14 24 0 35 -2 37 -72 71 -153 72 -225 96 -378 126 -118 24 -385 34 -506 20z" fill="#FFF98D"></path><path id="peqQxmrA3" d="M450 315 c0 -33 2 -35 35 -35 33 0 35 2 35 35 0 33 -2 35 -35 35 -33 0 -35 -2 -35 -35z" fill="#FFF98D"></path></g></g><g id="lfxZOIYm0VPsx6U08zFfaY" fill="#FFAD24" style="transform: none;"><g fill="#FFAD24"><path id="pfshvKcnF" d="M2050 2234 c-179 -21 -367 -59 -434 -88 -17 -7 -49 -19 -71 -26 -99 -31 -385 -181 -385 -202 0 -4 -6 -8 -13 -8 -7 0 -27 -13 -45 -30 -18 -16 -37 -30 -41 -30 -10 0 -311 -300 -311 -310 0 -4 -10 -18 -21 -31 -62 -69 -213 -334 -233 -409 -4 -14 -11 -34 -16 -45 -12 -28 -23 -58 -25 -70 -2 -5 -12 -41 -23 -80 -77 -270 -91 -557 -41 -842 l11 -63 78 0 c53 0 80 4 83 13 4 10 6 10 6 0 2 -21 69 -16 74 5 4 16 5 16 6 0 1 -11 9 -18 22 -18 24 0 24 -4 -12 167 -12 61 -38 74 -40 21 l-1 -33 -8 30 c-4 17 -8 54 -9 83 l-1 52 -36 0 -37 0 6 -92 c4 -78 4 -86 -5 -48 -13 59 -14 382 0 440 8 38 9 29 5 -53 l-6 -97 37 0 36 0 1 58 c1 31 5 71 9 87 l8 30 1 -32 c1 -42 27 -44 35 -3 5 25 17 83 21 100 1 3 5 25 9 50 5 25 13 51 18 58 6 6 8 12 5 12 -5 0 12 58 30 100 13 31 11 40 -9 40 -15 0 -18 4 -12 23 3 12 10 29 15 37 7 12 8 10 9 -7 0 -44 20 -22 75 87 31 61 61 110 66 110 6 0 8 4 5 8 -3 5 6 20 20 35 13 15 23 29 22 31 -2 3 11 21 29 40 17 20 29 36 26 36 -3 0 7 12 22 27 15 15 36 40 47 55 l19 28 -22 0 c-21 0 -19 5 21 46 40 40 45 43 48 24 3 -20 4 -20 30 -1 15 11 45 36 67 56 175 159 550 321 779 337 28 2 36 7 36 22 0 17 -6 18 -60 13 -33 -4 -73 -10 -88 -13 -15 -4 -24 -4 -21 0 9 10 167 36 217 36 42 0 42 0 42 36 l0 37 -87 -6 c-67 -4 -79 -3 -53 5 48 13 384 13 440 0 38 -9 31 -10 -47 -5 l-93 6 0 -37 c0 -36 0 -36 43 -37 23 0 60 -4 82 -8 39 -8 39 -9 8 -10 -21 -1 -33 -6 -33 -15 0 -13 25 -21 130 -41 71 -13 90 -18 150 -37 123 -39 271 -109 288 -137 18 -30 32 -26 32 9 0 25 4 30 25 30 14 0 25 -6 25 -12 0 -7 23 -28 51 -46 38 -25 54 -31 64 -22 9 8 15 8 20 0 11 -18 24 -11 27 15 l3 25 39 -27 c38 -27 38 -27 55 -8 9 11 35 37 58 57 l42 37 -32 26 c-18 14 -45 37 -62 50 -16 14 -35 25 -41 25 -7 0 -14 4 -16 9 -7 20 -298 182 -298 166 0 -3 -10 1 -22 9 -37 23 -231 85 -313 100 -156 29 -234 37 -365 40 -85 3 -171 2 -190 0z m475 -264 c14 -7 8 -8 -20 -3 -22 3 -42 7 -44 9 -9 8 45 2 64 -6z m-895 -85 c0 -10 -9 -15 -27 -14 -17 1 -21 3 -10 6 9 2 17 9 17 14 0 5 5 9 10 9 6 0 10 -7 10 -15z m-220 -105 c0 -5 -7 -10 -15 -10 -8 0 -15 5 -15 10 0 6 7 10 15 10 8 0 15 -4 15 -10z m-580 -570 c0 -11 -4 -20 -10 -20 -5 0 -10 9 -10 20 0 11 5 20 10 20 6 0 10 -9 10 -20z m-199 -516 c-5 -21 -9 -30 -10 -19 -1 24 10 67 15 62 3 -2 0 -22 -5 -43z m2 -599 c5 -28 4 -34 -3 -20 -8 19 -14 73 -6 64 2 -2 6 -22 9 -44z" fill="#FFAD24"></path><path id="plSk9JUus" d="M2050 1970 c0 -21 23 -26 68 -14 41 11 26 34 -23 34 -38 0 -45 -3 -45 -20z" fill="#FFAD24"></path><path id="p5swVNI5e" d="M2270 1976 c0 -14 29 -26 68 -26 15 0 22 6 22 20 0 17 -7 20 -45 20 -32 0 -45 -4 -45 -14z" fill="#FFAD24"></path><path id="paRkq9r4m" d="M610 515 c0 -49 23 -64 34 -22 12 44 7 67 -14 67 -17 0 -20 -7 -20 -45z" fill="#FFAD24"></path><path id="pR4q01Bbd" d="M610 285 c0 -38 3 -45 20 -45 21 0 26 23 14 68 -11 41 -34 26 -34 -23z" fill="#FFAD24"></path></g></g><g id="l4vwad9TPqXO26g6rYDoL1w" fill="#FEFDFC" style="transform: none;"><g fill="#FEFDFC"><path id="pqpOU8fAd" d="M2060 2114 c-330 -36 -563 -118 -820 -290 -352 -235 -607 -598 -708 -1009 -39 -155 -47 -228 -46 -415 0 -173 11 -290 35 -367 10 -32 12 -33 65 -33 30 0 54 3 54 8 0 4 -9 50 -21 102 -29 138 -36 347 -15 486 17 118 61 289 94 364 l20 45 -6 -47 c-3 -32 -1 -48 7 -48 6 0 11 7 11 15 0 8 5 15 10 15 6 0 9 3 9 8 -1 4 -1 9 1 12 12 31 8 50 -10 50 -11 0 -20 2 -20 6 0 9 75 155 110 214 47 80 131 192 139 184 3 -4 0 -9 -6 -11 -7 -3 -13 -19 -13 -36 1 -27 2 -29 11 -14 6 9 15 14 21 11 7 -4 8 -2 4 5 -4 6 0 14 8 17 9 3 14 10 11 14 -3 5 0 12 7 16 9 6 5 10 -12 15 -24 6 -20 11 70 100 81 81 95 91 98 72 4 -24 28 -21 49 6 10 13 7 17 -15 21 -25 5 -22 9 56 65 80 58 97 69 212 132 135 73 383 151 550 173 220 28 496 -6 715 -89 64 -24 67 -26 38 -29 -36 -4 -43 -16 -15 -27 37 -17 52 -15 52 5 0 11 2 20 4 20 2 0 30 -12 62 -27 l59 -28 -33 -5 c-31 -5 -32 -6 -15 -20 28 -23 51 -23 55 0 3 18 10 16 83 -27 57 -34 81 -54 83 -70 3 -22 3 -22 24 -3 21 19 21 19 50 -5 36 -30 41 -31 78 -3 48 35 50 31 -100 132 -218 146 -416 225 -675 272 -78 14 -355 26 -425 18z m-940 -477 c0 -1 -37 -38 -82 -82 l-83 -80 80 83 c74 76 85 87 85 79z m-553 -1124 c-3 -10 -5 -2 -5 17 0 19 2 27 5 18 2 -10 2 -26 0 -35z" fill="#FEFDFC"></path><path id="pyQSTsPvE" d="M2110 1976 c0 -16 25 -24 53 -18 32 8 19 32 -18 32 -24 0 -35 -5 -35 -14z" fill="#FEFDFC"></path><path id="ppUdgY2LZ" d="M1990 1966 c0 -16 25 -24 53 -18 32 8 19 32 -18 32 -24 0 -35 -5 -35 -14z" fill="#FEFDFC"></path><path id="p15gsXEc1H" d="M2340 1966 c0 -16 25 -24 53 -18 32 8 19 32 -18 32 -24 0 -35 -5 -35 -14z" fill="#FEFDFC"></path><path id="paSxXn5XG" d="M2470 1950 c0 -14 31 -28 51 -23 34 9 22 33 -16 33 -19 0 -35 -4 -35 -10z" fill="#FEFDFC"></path><path id="pQ8fttklt" d="M890 1290 c0 -23 -4 -30 -20 -30 -17 0 -20 -7 -20 -37 1 -36 1 -37 13 -15 7 12 17 19 22 15 4 -4 5 -3 2 3 -6 11 26 68 34 60 3 -3 5 4 6 14 1 14 -5 20 -18 20 -14 0 -19 -7 -19 -30z" fill="#FEFDFC"></path><path id="pwPwSeKkN" d="M670 825 c0 -19 5 -35 10 -35 6 0 10 7 10 15 0 8 4 15 8 15 4 0 8 9 8 20 0 13 -7 20 -18 20 -14 0 -18 -8 -18 -35z" fill="#FEFDFC"></path><path id="p1nQOYjUT" d="M640 705 c0 -37 13 -46 28 -19 12 22 4 54 -14 54 -9 0 -14 -12 -14 -35z" fill="#FEFDFC"></path><path id="pfS9m3Vmc" d="M620 575 c0 -37 24 -50 32 -17 6 27 -2 52 -18 52 -9 0 -14 -11 -14 -35z" fill="#FEFDFC"></path><path id="p7mGgB8qE" d="M610 445 c0 -37 24 -50 32 -17 6 27 -2 52 -18 52 -9 0 -14 -11 -14 -35z" fill="#FEFDFC"></path><path id="pbGCIVVYk" d="M610 345 c0 -37 24 -50 32 -17 6 27 -2 52 -18 52 -9 0 -14 -11 -14 -35z" fill="#FEFDFC"></path><path id="p1Cv1d2pmG" d="M620 225 c0 -37 24 -50 32 -17 6 27 -2 52 -18 52 -9 0 -14 -11 -14 -35z" fill="#FEFDFC"></path><path id="pWE84iINq" d="M640 95 c0 -23 5 -35 14 -35 18 0 26 32 14 54 -15 27 -28 18 -28 -19z" fill="#FEFDFC"></path></g></g><g id="lWMeASjmfgmCcMbDnIpHzf" fill="#FD3E1B" style="transform: none;"><g fill="#FD3E1B"><path id="pCKxVJkst" d="M2060 2034 c-235 -27 -387 -70 -580 -165 -176 -86 -278 -158 -418 -293 -254 -245 -410 -539 -479 -906 -31 -165 -22 -466 19 -627 10 -42 12 -43 50 -43 37 0 40 2 34 22 -31 110 -40 195 -40 378 0 197 3 229 46 400 44 175 146 386 263 541 78 104 235 256 341 331 193 136 414 227 654 269 100 18 413 18 505 0 113 -22 212 -50 304 -86 132 -51 190 -79 189 -90 -2 -20 15 -45 31 -45 9 0 23 -9 31 -20 8 -11 22 -20 32 -20 10 0 18 -4 18 -10 0 -20 33 -9 61 21 16 17 29 35 29 39 0 11 -114 83 -205 128 -163 82 -300 127 -475 158 -84 14 -343 26 -410 18z" fill="#FD3E1B"></path></g></g></svg>