<?xml version="1.0" standalone="no"?><!DOCTYPE svg PUBLIC "-//W3C//DTD SVG 1.1//EN" "http://www.w3.org/Graphics/SVG/1.1/DTD/svg11.dtd"><svg class="img-fluid" id="outputsvg" style="background-image:url(&quot;https://www.vectorizer.io/img/bg1.png&quot;);block-size:96px;cursor:move;height:96px;inline-size:96px;max-block-size:351.34px;max-height:351.34px;max-inline-size:100%;max-width:100%;perspective-origin:48px 48px;text-align:center;transform:matrix(0.769231, 0, 0, 0.769231, 0, 0);transform-origin:48px 48px;transition-duration:0.2s;transition-property:transform;transition-timing-function:ease-in-out;width:96px;" width="96" height="96" viewBox="0 0 960 960" version="1.1" xmlns="http://www.w3.org/2000/svg" xmlns:xlink="http://www.w3.org/1999/xlink"><g id="l5MIY87V2DQRtr04KfcYUXo" fill="rgb(76,150,255)" style="block-size:auto;cursor:move;fill:rgb(76, 150, 255);height:auto;inline-size:auto;overflow:visible;overflow-block:visible;overflow-inline:visible;overflow-x:visible;overflow-y:visible;perspective-origin:480px 480px;text-align:center;transform-origin:0px 0px;vertical-align:baseline;width:auto;"><g style="block-size:auto;cursor:move;fill:rgb(76, 150, 255);height:auto;inline-size:auto;overflow:visible;overflow-block:visible;overflow-inline:visible;overflow-x:visible;overflow-y:visible;perspective-origin:480px 480px;text-align:center;transform-origin:0px 0px;vertical-align:baseline;width:auto;"><path id="p133Rp7iEn" d="M234 866 c-58 -25 -82 -89 -49 -132 13 -18 14 -16 15 28 0 38 5 50 26 67 33 26 65 27 92 4 19 -17 142 -343 142 -377 0 -18 -55 -64 -86 -72 -24 -6 -71 -2 -109 10 -15 5 -24 0 -36 -22 -23 -42 -81 -66 -141 -59 l-49 6 32 -41 c103 -129 289 -194 471 -165 46 8 46 8 53 -23 9 -43 29 -39 21 5 -7 34 -6 35 55 66 148 74 248 239 249 408 0 23 0 23 -35 -8 -51 -44 -88 -50 -170 -26 -16 5 -24 0 -35 -20 -31 -58 -134 -86 -178 -47 -12 10 -42 80 -72 167 -67 193 -81 220 -121 234 -39 13 -37 13 -75 -3z" style="block-size:auto;cursor:move;fill:rgb(76, 150, 255);height:auto;inline-size:auto;overflow:visible;overflow-block:visible;overflow-inline:visible;overflow-x:visible;overflow-y:visible;perspective-origin:480px 480px;text-align:center;transform-origin:0px 0px;user-select:none;vertical-align:baseline;width:auto;"/></g></g></svg>