<?xml version="1.0" standalone="no"?><!DOCTYPE svg PUBLIC "-//W3C//DTD SVG 1.1//EN" "http://www.w3.org/Graphics/SVG/1.1/DTD/svg11.dtd"><svg class="img-fluid" id="outputsvg" style="background-image:url(&quot;https://www.vectorizer.io/img/bg1.png&quot;);block-size:96px;cursor:move;height:96px;inline-size:97px;max-block-size:351.34px;max-height:351.34px;max-inline-size:100%;max-width:100%;perspective-origin:48.5px 48px;text-align:center;transform-origin:48.5px 48px;width:97px;" width="97" height="96" viewBox="0 0 970 960" version="1.1" xmlns="http://www.w3.org/2000/svg" xmlns:xlink="http://www.w3.org/1999/xlink"><g id="l8Tmd7Dlc4zu440cwy1Qaw" fill="rgb(255,255,255)" style="block-size:auto;cursor:move;fill:rgb(255, 255, 255);height:auto;inline-size:auto;overflow:visible;overflow-block:visible;overflow-inline:visible;overflow-x:visible;overflow-y:visible;perspective-origin:485px 480px;text-align:center;transform-origin:0px 0px;vertical-align:baseline;width:auto;"><g style="block-size:auto;cursor:move;fill:rgb(255, 255, 255);height:auto;inline-size:auto;overflow:visible;overflow-block:visible;overflow-inline:visible;overflow-x:visible;overflow-y:visible;perspective-origin:485px 480px;text-align:center;transform-origin:0px 0px;vertical-align:baseline;width:auto;"><path id="pNJAGvbk4" d="M252 848 c-17 -17 -15 -42 9 -82 l21 -36 -46 0 c-39 0 -48 -4 -57 -24 -8 -17 -8 -29 0 -44 10 -18 22 -22 83 -24 l72 -3 33 -55 c18 -30 33 -58 33 -62 0 -5 -31 -8 -70 -8 l-69 0 -38 58 c-29 43 -45 58 -66 60 -36 4 -45 -20 -23 -64 9 -19 16 -39 16 -44 0 -6 -22 -10 -50 -10 -59 0 -79 -22 -54 -58 12 -17 25 -22 64 -22 l48 0 -21 -40 c-25 -44 -17 -72 22 -78 16 -3 29 9 58 57 l38 61 73 0 74 0 -35 -62 -35 -63 -70 -3 c-81 -3 -102 -17 -84 -57 10 -21 18 -25 57 -25 25 0 45 -2 45 -4 0 -3 -9 -21 -21 -40 -27 -47 -22 -80 13 -84 22 -3 32 4 53 37 14 23 27 41 29 41 3 0 14 -16 26 -36 18 -28 28 -34 49 -32 37 4 38 37 2 104 l-30 55 36 59 c19 33 38 60 42 60 3 0 21 -27 39 -61 l33 -60 -31 -56 c-37 -65 -35 -103 5 -103 18 0 30 10 47 40 26 45 34 49 43 21 10 -32 45 -71 65 -71 9 0 23 7 31 16 11 13 10 22 -9 57 -12 23 -22 45 -22 49 0 4 19 8 41 10 49 3 71 27 53 55 -9 14 -27 19 -81 21 -66 3 -70 4 -87 35 -11 18 -28 47 -38 65 l-20 32 76 0 75 0 33 -55 c36 -61 62 -76 86 -51 17 16 16 19 -13 89 -6 15 -1 17 38 17 28 0 52 6 61 16 19 18 19 20 6 45 -8 15 -22 19 -60 19 -28 0 -50 4 -50 10 0 5 7 25 16 44 20 42 13 66 -20 66 -20 0 -34 -13 -63 -57 l-38 -58 -73 -3 c-39 -2 -72 -1 -72 2 0 3 16 31 35 63 l35 58 77 10 c78 10 78 10 78 40 0 19 -5 30 -15 32 -8 1 -32 4 -52 8 l-37 6 20 34 c28 46 22 90 -11 90 -17 0 -32 -12 -53 -43 l-29 -42 -22 32 c-24 36 -56 47 -74 25 -9 -10 -4 -28 18 -76 l30 -63 -36 -65 c-40 -72 -34 -73 -87 18 l-26 46 35 57 c39 65 40 69 18 90 -26 27 -50 19 -76 -24 l-24 -41 -32 46 c-32 46 -49 54 -70 33z" style="block-size:auto;cursor:move;fill:rgb(255, 255, 255);height:auto;inline-size:auto;overflow:visible;overflow-block:visible;overflow-inline:visible;overflow-x:visible;overflow-y:visible;perspective-origin:485px 480px;text-align:center;transform-origin:0px 0px;user-select:none;vertical-align:baseline;width:auto;"/></g></g></svg>