<?xml version="1.0" standalone="no"?><!DOCTYPE svg PUBLIC "-//W3C//DTD SVG 1.1//EN" "http://www.w3.org/Graphics/SVG/1.1/DTD/svg11.dtd"><svg class="img-fluid" id="outputsvg" style="background-image:url(&quot;https://www.vectorizer.io/img/bg1.png&quot;);block-size:96px;cursor:move;height:96px;inline-size:96px;max-block-size:351.34px;max-height:351.34px;max-inline-size:100%;max-width:100%;perspective-origin:48px 48px;text-align:center;transform-origin:48px 48px;width:96px;" width="96" height="96" viewBox="0 0 960 960" version="1.1" xmlns="http://www.w3.org/2000/svg" xmlns:xlink="http://www.w3.org/1999/xlink"><g id="l4xZw7WFpPHyMVI6pfKyQ9X" fill="rgb(76,152,255)" style="block-size:auto;cursor:move;fill:rgb(76, 152, 255);height:auto;inline-size:auto;overflow:visible;overflow-block:visible;overflow-inline:visible;overflow-x:visible;overflow-y:visible;perspective-origin:480px 480px;text-align:center;transform-origin:0px 0px;vertical-align:baseline;width:auto;"><g style="block-size:auto;cursor:move;fill:rgb(76, 152, 255);height:auto;inline-size:auto;overflow:visible;overflow-block:visible;overflow-inline:visible;overflow-x:visible;overflow-y:visible;perspective-origin:480px 480px;text-align:center;transform-origin:0px 0px;vertical-align:baseline;width:auto;"><path id="p1CxMGlvve" d="M234 876 c-58 -25 -82 -89 -49 -132 13 -18 14 -16 15 28 0 38 5 50 26 67 59 46 99 20 139 -89 26 -70 95 -272 95 -276 0 -1 -10 -4 -22 -7 -18 -5 -19 -9 -9 -21 11 -13 7 -19 -21 -36 -33 -21 -91 -23 -143 -6 -15 5 -24 0 -36 -22 -23 -42 -81 -66 -141 -59 l-49 6 32 -41 c103 -129 289 -194 471 -165 46 8 46 8 53 -23 9 -43 29 -39 21 5 -7 33 -5 35 42 59 38 19 52 22 61 13 10 -9 12 -9 10 3 -2 8 22 40 53 71 85 85 138 209 138 328 l0 25 -27 -26 c-53 -49 -98 -59 -162 -37 -29 10 -34 9 -48 -10 -12 -17 -18 -20 -29 -10 -12 9 -14 6 -14 -22 0 -22 9 -42 27 -61 l27 -28 -56 0 c-48 0 -57 -3 -60 -19 -3 -18 -7 -16 -40 15 -22 20 -32 34 -23 34 22 0 18 24 -6 35 -13 6 -29 31 -40 60 -23 61 -24 71 -4 55 13 -11 15 -8 15 17 0 29 -26 63 -48 63 -6 0 -14 10 -17 23 -4 12 -21 55 -38 96 -25 61 -35 75 -63 87 -40 17 -41 17 -80 0z" style="block-size:auto;cursor:move;fill:rgb(76, 152, 255);height:auto;inline-size:auto;overflow:visible;overflow-block:visible;overflow-inline:visible;overflow-x:visible;overflow-y:visible;perspective-origin:480px 480px;text-align:center;transform-origin:0px 0px;user-select:none;vertical-align:baseline;width:auto;"/></g></g><g id="l2Z1Q6gh2gdLOFSD4xcWhDV" fill="rgb(255,213,0)" style="block-size:auto;cursor:move;fill:rgb(255, 213, 0);height:auto;inline-size:auto;overflow:visible;overflow-block:visible;overflow-inline:visible;overflow-x:visible;overflow-y:visible;perspective-origin:480px 480px;text-align:center;transform-origin:0px 0px;vertical-align:baseline;width:auto;"><g style="block-size:auto;cursor:move;fill:rgb(255, 213, 0);height:auto;inline-size:auto;overflow:visible;overflow-block:visible;overflow-inline:visible;overflow-x:visible;overflow-y:visible;perspective-origin:480px 480px;text-align:center;transform-origin:0px 0px;vertical-align:baseline;width:auto;"><path id="p18AdhWbTX" d="M425 860 c5 -8 36 -52 68 -98 32 -46 57 -85 55 -87 -2 -2 -36 -5 -76 -6 -39 -1 -72 -5 -72 -8 0 -4 38 -44 85 -91 47 -47 85 -88 85 -92 0 -4 -36 -8 -80 -10 l-81 -3 161 -148 c88 -81 160 -146 160 -144 0 3 -27 48 -60 100 -33 53 -60 98 -60 101 0 3 39 6 86 6 l86 0 -86 93 -86 92 88 5 89 5 -164 135 c-90 74 -174 142 -186 150 -19 13 -20 13 -12 0z" style="block-size:auto;cursor:move;fill:rgb(255, 213, 0);height:auto;inline-size:auto;overflow:visible;overflow-block:visible;overflow-inline:visible;overflow-x:visible;overflow-y:visible;perspective-origin:480px 480px;text-align:center;transform-origin:0px 0px;user-select:none;vertical-align:baseline;width:auto;"/></g></g></svg>