<?xml version="1.0" standalone="no"?><!DOCTYPE svg PUBLIC "-//W3C//DTD SVG 1.1//EN" "http://www.w3.org/Graphics/SVG/1.1/DTD/svg11.dtd"><svg class="img-fluid" id="outputsvg" style="background-image:url(&quot;https://www.vectorizer.io/img/bg.png&quot;);block-size:96px;cursor:move;height:96px;inline-size:96px;max-block-size:351.34px;max-height:351.34px;max-inline-size:100%;max-width:100%;perspective-origin:48px 48px;text-align:center;transform:matrix(2.197, 0, 0, 2.197, 0, 0);transform-origin:48px 48px;transition-duration:0.2s;transition-property:transform;transition-timing-function:ease-in-out;width:96px;" width="96" height="96" viewBox="0 0 960 960" version="1.1" xmlns="http://www.w3.org/2000/svg" xmlns:xlink="http://www.w3.org/1999/xlink"><g id="l4LEsAM7RHPHSt7lfFrVyIm" fill="rgb(245,157,13)" style="block-size:auto;cursor:move;fill:rgb(245, 157, 13);height:auto;inline-size:auto;overflow:visible;overflow-block:visible;overflow-inline:visible;overflow-x:visible;overflow-y:visible;perspective-origin:480px 480px;text-align:center;transform-origin:0px 0px;vertical-align:baseline;width:auto;"><g style="block-size:auto;cursor:move;fill:rgb(245, 157, 13);height:auto;inline-size:auto;overflow:visible;overflow-block:visible;overflow-inline:visible;overflow-x:visible;overflow-y:visible;perspective-origin:480px 480px;text-align:center;transform-origin:0px 0px;vertical-align:baseline;width:auto;"><path id="p12jHATsnr" d="M210 956 c0 -7 118 -177 136 -196 21 -22 17 -4 -24 100 -38 94 -38 95 -75 98 -20 2 -37 1 -37 -2z" style="block-size:auto;cursor:move;fill:rgb(245, 157, 13);height:auto;inline-size:auto;overflow:visible;overflow-block:visible;overflow-inline:visible;overflow-x:visible;overflow-y:visible;perspective-origin:480px 480px;text-align:center;transform-origin:0px 0px;user-select:none;vertical-align:baseline;width:auto;"/><path id="p1DqKL2Hno" d="M526 914 c-9 -68 -8 -150 3 -138 4 5 16 38 25 74 8 36 19 75 22 88 5 18 2 22 -18 22 -22 0 -26 -5 -32 -46z" style="block-size:auto;cursor:move;fill:rgb(245, 157, 13);height:auto;inline-size:auto;overflow:visible;overflow-block:visible;overflow-inline:visible;overflow-x:visible;overflow-y:visible;perspective-origin:480px 480px;text-align:center;transform-origin:0px 0px;user-select:none;vertical-align:baseline;width:auto;"/><path id="p1HGQx1y4s" d="M853 790 c-56 -68 -100 -126 -98 -128 2 -2 37 21 77 52 137 104 130 95 126 151 l-3 50 -102 -125z" style="block-size:auto;cursor:move;fill:rgb(245, 157, 13);height:auto;inline-size:auto;overflow:visible;overflow-block:visible;overflow-inline:visible;overflow-x:visible;overflow-y:visible;perspective-origin:480px 480px;text-align:center;transform-origin:0px 0px;user-select:none;vertical-align:baseline;width:auto;"/><path id="p19sSIc9xH" d="M0 789 c0 -44 1 -46 48 -68 85 -42 192 -91 192 -87 0 2 -46 41 -102 87 -57 45 -111 89 -120 97 -17 14 -18 12 -18 -29z" style="block-size:auto;cursor:move;fill:rgb(245, 157, 13);height:auto;inline-size:auto;overflow:visible;overflow-block:visible;overflow-inline:visible;overflow-x:visible;overflow-y:visible;perspective-origin:480px 480px;text-align:center;transform-origin:0px 0px;user-select:none;vertical-align:baseline;width:auto;"/><path id="p1Gqa3iFKW" d="M390 674 c-162 -70 -174 -288 -20 -374 55 -31 156 -34 206 -7 131 70 162 215 71 323 -56 67 -175 93 -257 58z" style="block-size:auto;cursor:move;fill:rgb(245, 157, 13);height:auto;inline-size:auto;overflow:visible;overflow-block:visible;overflow-inline:visible;overflow-x:visible;overflow-y:visible;perspective-origin:480px 480px;text-align:center;transform-origin:0px 0px;user-select:none;vertical-align:baseline;width:auto;"/><path id="p38fHFKxv" d="M0 549 l0 -29 98 1 c53 0 93 2 87 5 -5 2 -49 15 -97 28 l-88 24 0 -29z" style="block-size:auto;cursor:move;fill:rgb(245, 157, 13);height:auto;inline-size:auto;overflow:visible;overflow-block:visible;overflow-inline:visible;overflow-x:visible;overflow-y:visible;perspective-origin:480px 480px;text-align:center;transform-origin:0px 0px;user-select:none;vertical-align:baseline;width:auto;"/><path id="p16riqAW7g" d="M863 518 c-46 -17 -83 -33 -83 -37 0 -3 40 -5 90 -3 l90 3 0 35 c0 19 -3 34 -7 33 -5 0 -45 -14 -90 -31z" style="block-size:auto;cursor:move;fill:rgb(245, 157, 13);height:auto;inline-size:auto;overflow:visible;overflow-block:visible;overflow-inline:visible;overflow-x:visible;overflow-y:visible;perspective-origin:480px 480px;text-align:center;transform-origin:0px 0px;user-select:none;vertical-align:baseline;width:auto;"/><path id="pTuPVDjtJ" d="M58 383 l-58 -4 0 -50 0 -49 103 51 c56 28 104 53 106 55 4 4 -53 3 -151 -3z" style="block-size:auto;cursor:move;fill:rgb(245, 157, 13);height:auto;inline-size:auto;overflow:visible;overflow-block:visible;overflow-inline:visible;overflow-x:visible;overflow-y:visible;perspective-origin:480px 480px;text-align:center;transform-origin:0px 0px;user-select:none;vertical-align:baseline;width:auto;"/><path id="p19r3rKvPB" d="M780 338 c0 -6 162 -98 174 -98 3 0 6 19 6 43 l0 43 -90 10 c-49 5 -90 6 -90 2z" style="block-size:auto;cursor:move;fill:rgb(245, 157, 13);height:auto;inline-size:auto;overflow:visible;overflow-block:visible;overflow-inline:visible;overflow-x:visible;overflow-y:visible;perspective-origin:480px 480px;text-align:center;transform-origin:0px 0px;user-select:none;vertical-align:baseline;width:auto;"/><path id="pbkoZwGcV" d="M179 227 c-197 -143 -179 -125 -179 -179 0 -34 4 -48 14 -48 16 0 219 225 250 278 11 18 8 16 -85 -51z" style="block-size:auto;cursor:move;fill:rgb(245, 157, 13);height:auto;inline-size:auto;overflow:visible;overflow-block:visible;overflow-inline:visible;overflow-x:visible;overflow-y:visible;perspective-origin:480px 480px;text-align:center;transform-origin:0px 0px;user-select:none;vertical-align:baseline;width:auto;"/><path id="p4yLQhT2w" d="M690 243 c12 -21 52 -84 89 -140 l66 -103 58 0 57 0 0 39 c0 35 -5 42 -54 79 -77 59 -226 162 -232 162 -3 0 4 -17 16 -37z" style="block-size:auto;cursor:move;fill:rgb(245, 157, 13);height:auto;inline-size:auto;overflow:visible;overflow-block:visible;overflow-inline:visible;overflow-x:visible;overflow-y:visible;perspective-origin:480px 480px;text-align:center;transform-origin:0px 0px;user-select:none;vertical-align:baseline;width:auto;"/><path id="p1A2ngHHrp" d="M415 198 c-39 -109 -65 -184 -65 -190 0 -5 13 -8 29 -8 32 0 29 -11 45 158 5 49 1 67 -9 40z" style="block-size:auto;cursor:move;fill:rgb(245, 157, 13);height:auto;inline-size:auto;overflow:visible;overflow-block:visible;overflow-inline:visible;overflow-x:visible;overflow-y:visible;perspective-origin:480px 480px;text-align:center;transform-origin:0px 0px;user-select:none;vertical-align:baseline;width:auto;"/><path id="p1dVbZNLd" d="M534 193 c2 -10 7 -45 11 -78 11 -112 12 -115 52 -115 29 0 34 3 29 17 -33 86 -83 193 -89 193 -5 0 -6 -8 -3 -17z" style="block-size:auto;cursor:move;fill:rgb(245, 157, 13);height:auto;inline-size:auto;overflow:visible;overflow-block:visible;overflow-inline:visible;overflow-x:visible;overflow-y:visible;perspective-origin:480px 480px;text-align:center;transform-origin:0px 0px;user-select:none;vertical-align:baseline;width:auto;"/></g></g></svg>